<svg xmlns="http://www.w3.org/2000/svg" viewBox="0 0 6.55 8.42"><title>Stroke 8</title><path d="M2.34.94H4.21a.46.46,0,0,1,.47.46V3.28a.46.46,0,0,1-.47.46H2.34a.46.46,0,0,1-.47-.46V1.4A.46.46,0,0,1,2.34.94ZM1.87,7V5.15a.47.47,0,0,1,.47-.47H4.21a.47.47,0,0,1,.47.47V7a.47.47,0,0,1-.47.47H2.34A.47.47,0,0,1,1.87,7ZM6.08,4.21a.46.46,0,0,1-.46-.47h0V.47A.47.47,0,0,0,5.15,0H1.4A.48.48,0,0,0,.93.47V3.74h0a.47.47,0,0,1-.47.47h0A.47.47,0,0,0,0,4.68V8a.47.47,0,0,0,.47.46H6.08A.47.47,0,0,0,6.55,8V4.68a.47.47,0,0,0-.47-.47Z"/></svg>